<svg width="24" height="28" viewBox="0 0 24 28" fill="none" xmlns="http://www.w3.org/2000/svg">
    <path
        d="M20 3.33341H18.6667V2.00008C18.6667 1.64646 18.5262 1.30732 18.2761 1.05727C18.0261 0.807224 17.687 0.666748 17.3333 0.666748C16.9797 0.666748 16.6406 0.807224 16.3905 1.05727C16.1405 1.30732 16 1.64646 16 2.00008V3.33341H8V2.00008C8 1.64646 7.85952 1.30732 7.60948 1.05727C7.35943 0.807224 7.02029 0.666748 6.66667 0.666748C6.31305 0.666748 5.97391 0.807224 5.72386 1.05727C5.47381 1.30732 5.33333 1.64646 5.33333 2.00008V3.33341H4C2.93913 3.33341 1.92172 3.75484 1.17157 4.50499C0.421427 5.25513 0 6.27255 0 7.33342V23.3334C0 24.3943 0.421427 25.4117 1.17157 26.1618C1.92172 26.912 2.93913 27.3334 4 27.3334H20C21.0609 27.3334 22.0783 26.912 22.8284 26.1618C23.5786 25.4117 24 24.3943 24 23.3334V7.33342C24 6.27255 23.5786 5.25513 22.8284 4.50499C22.0783 3.75484 21.0609 3.33341 20 3.33341ZM6.66667 20.6667C6.40296 20.6667 6.14517 20.5886 5.92591 20.442C5.70664 20.2955 5.53574 20.0873 5.43483 19.8437C5.33391 19.6 5.30751 19.3319 5.35895 19.0733C5.4104 18.8147 5.53739 18.5771 5.72386 18.3906C5.91033 18.2041 6.14791 18.0771 6.40655 18.0257C6.66519 17.9743 6.93328 18.0007 7.17691 18.1016C7.42055 18.2025 7.62878 18.3734 7.77529 18.5927C7.9218 18.8119 8 19.0697 8 19.3334C8 19.687 7.85952 20.0262 7.60948 20.2762C7.35943 20.5263 7.02029 20.6667 6.66667 20.6667ZM17.3333 20.6667H12C11.6464 20.6667 11.3072 20.5263 11.0572 20.2762C10.8071 20.0262 10.6667 19.687 10.6667 19.3334C10.6667 18.9798 10.8071 18.6407 11.0572 18.3906C11.3072 18.1406 11.6464 18.0001 12 18.0001H17.3333C17.687 18.0001 18.0261 18.1406 18.2761 18.3906C18.5262 18.6407 18.6667 18.9798 18.6667 19.3334C18.6667 19.687 18.5262 20.0262 18.2761 20.2762C18.0261 20.5263 17.687 20.6667 17.3333 20.6667ZM21.3333 12.6667H2.66667V7.33342C2.66667 6.97979 2.80714 6.64065 3.05719 6.39061C3.30724 6.14056 3.64638 6.00008 4 6.00008H5.33333V7.33342C5.33333 7.68704 5.47381 8.02618 5.72386 8.27622C5.97391 8.52627 6.31305 8.66675 6.66667 8.66675C7.02029 8.66675 7.35943 8.52627 7.60948 8.27622C7.85952 8.02618 8 7.68704 8 7.33342V6.00008H16V7.33342C16 7.68704 16.1405 8.02618 16.3905 8.27622C16.6406 8.52627 16.9797 8.66675 17.3333 8.66675C17.687 8.66675 18.0261 8.52627 18.2761 8.27622C18.5262 8.02618 18.6667 7.68704 18.6667 7.33342V6.00008H20C20.3536 6.00008 20.6928 6.14056 20.9428 6.39061C21.1929 6.64065 21.3333 6.97979 21.3333 7.33342V12.6667Z"
        fill="#1282A2" />
</svg>