<svg width="24" height="28" viewBox="0 0 24 28" fill="none" xmlns="http://www.w3.org/2000/svg">
    <path d="M9.33325 16.6667H14.6666V26.0001H9.33325V16.6667Z" fill="#1282A2" />
    <path
        d="M23.2266 11.5734L12.9466 1.06676C12.8226 0.94179 12.6752 0.842597 12.5127 0.774906C12.3502 0.707214 12.1759 0.672363 11.9999 0.672363C11.8239 0.672363 11.6496 0.707214 11.4871 0.774906C11.3247 0.842597 11.1772 0.94179 11.0532 1.06676L0.773243 11.5868C0.524492 11.8375 0.328036 12.1352 0.19528 12.4625C0.062525 12.7898 -0.00388384 13.1402 -9.03216e-05 13.4934V24.6668C-0.00112342 25.3493 0.259607 26.0063 0.728409 26.5024C1.19721 26.9984 1.83839 27.2959 2.51991 27.3334H6.66658V15.3334C6.66658 14.9798 6.80705 14.6407 7.0571 14.3906C7.30715 14.1406 7.64629 14.0001 7.99991 14.0001H15.9999C16.3535 14.0001 16.6927 14.1406 16.9427 14.3906C17.1928 14.6407 17.3332 14.9798 17.3332 15.3334V27.3334H21.4799C22.1614 27.2959 22.8026 26.9984 23.2714 26.5024C23.7402 26.0063 24.0009 25.3493 23.9999 24.6668V13.4934C24.001 12.7773 23.7237 12.0889 23.2266 11.5734Z"
        fill="#1282A2" />
</svg>